<svg width="32" height="39" viewBox="0 0 32 39" fill="none" xmlns="http://www.w3.org/2000/svg">
<g clip-path="url(#clip0_1_4060)">
<path d="M31.3717 13.2681C31.2775 13.106 31.1793 12.9433 31.0798 12.7839C30.8011 12.3385 30.4987 11.9023 30.1805 11.4872C28.6691 9.51201 26.7038 7.86818 24.4979 6.73364C22.1873 5.54573 19.6909 4.92246 17.0779 4.88293C16.9073 4.88029 16.7676 4.73996 16.7676 4.56997V2.19613C16.7676 1.35149 16.0804 0.664307 15.2358 0.664307C14.3911 0.664307 13.704 1.35149 13.704 2.19613V4.91258C13.704 5.06082 13.5979 5.18929 13.4523 5.21894C12.5734 5.39749 11.7037 5.64851 10.8663 5.96542C10.8301 5.97925 10.7932 5.98584 10.7556 5.98584C10.5837 5.98584 10.4433 5.84551 10.4433 5.67289V2.19613C10.4433 1.35149 9.75613 0.664307 8.91149 0.664307C8.06684 0.664307 7.37966 1.35149 7.37966 2.19613V7.47616C7.37966 7.66328 7.28742 7.83985 7.13193 7.94988C4.9821 9.46721 3.19398 11.4945 1.96061 13.8123C0.687055 16.2053 0.00909809 18.9125 -0.000125818 21.6415C-0.00737318 23.8921 0.434057 26.0828 1.31165 28.1529C2.15761 30.1479 3.37121 31.9459 4.91754 33.4975C6.48231 35.0675 8.30469 36.3022 10.3346 37.1666C12.435 38.0613 14.658 38.5153 16.9416 38.5153H29.467C30.0211 38.5153 30.4717 38.0646 30.4717 37.5105V29.1293C30.4717 28.6892 30.249 28.2873 29.8755 28.0534L29.1744 27.6153L29.1369 27.5922L26.518 25.9549L26.4692 25.9246L23.1585 23.8559C22.9463 23.7234 22.8442 23.4711 22.9048 23.2286C23.0293 22.7312 23.0926 22.2166 23.0926 21.6988C23.0926 21.1809 23.0293 20.6657 22.9048 20.1689C22.8442 19.9265 22.9463 19.6741 23.1585 19.5417L26.4692 17.4729L26.518 17.4426L29.1369 15.8054L29.1744 15.7823L31.0317 14.6214C31.4943 14.3322 31.6432 13.7385 31.371 13.2694L31.3717 13.2681ZM27.3 13.1001C27.2756 13.2681 27.1788 13.4157 27.0352 13.5053L24.8438 14.8751L21.85 16.7462C21.6747 16.8556 21.4725 16.9135 21.2663 16.9135C21.0271 16.9135 20.7899 16.8338 20.5988 16.6895C19.5032 15.8607 18.1954 15.4226 16.817 15.4226H16.7828C15.1383 15.4311 13.5841 16.0788 12.406 17.2456C11.228 18.4124 10.5659 19.9607 10.5421 21.6046C10.5178 23.2991 11.1588 24.8968 12.3474 26.1025C13.536 27.3089 15.1238 27.973 16.817 27.973C18.198 27.973 19.5078 27.5329 20.6048 26.7014C20.7952 26.5571 21.0225 26.4807 21.263 26.4807C21.4705 26.4807 21.6734 26.5387 21.85 26.6494L24.8438 28.5205L27.0753 29.9153C27.2835 30.0458 27.4081 30.2704 27.4081 30.5162V34.8751C27.4081 35.1927 27.1491 35.4516 26.8316 35.4516H16.9389C15.0876 35.4516 13.283 35.086 11.5752 34.3652C9.9248 33.6688 8.43909 32.6739 7.15895 31.4076C5.87616 30.1393 4.86878 28.6668 4.16381 27.0302C3.43183 25.3317 3.06155 23.533 3.06353 21.6843C3.06551 19.8362 3.42787 18.0422 4.14075 16.3535C4.82925 14.7222 5.81423 13.2563 7.06934 11.9959C7.1036 11.961 7.14906 11.9419 7.19716 11.9419C7.29796 11.9419 7.37966 12.0236 7.37966 12.1237V13.7912C7.37966 14.6359 8.06684 15.3231 8.91149 15.3231C9.75613 15.3231 10.4433 14.6359 10.4433 13.7912V9.86252C10.4433 9.64378 10.5698 9.44086 10.7662 9.34466C12.659 8.41568 14.6955 7.94461 16.8177 7.94461C18.9399 7.94461 20.7767 8.37088 22.5925 9.21224C24.347 10.0246 25.8848 11.1769 27.1643 12.6363C27.2756 12.7634 27.3257 12.9328 27.3013 13.1008L27.3 13.1001ZM20.027 21.8088C20.0072 22.3741 19.8392 22.9242 19.5414 23.4006C19.2429 23.8783 18.8226 24.2703 18.3258 24.5345C17.8646 24.7802 17.3435 24.91 16.8177 24.91C15.0467 24.91 13.6058 23.4691 13.6058 21.6981C13.6058 19.9271 15.0467 18.4862 16.8177 18.4862C17.3435 18.4862 17.8646 18.616 18.3258 18.8618C18.8226 19.1266 19.2429 19.5186 19.5414 19.9956C19.8398 20.472 20.0079 21.0221 20.027 21.5855V21.8088Z" fill="#16063E"/>
<path d="M26.541 17.4945C27.1162 18.8234 27.4081 20.238 27.4081 21.6986C27.4081 23.1593 27.1162 24.5739 26.541 25.9028L26.518 25.9555L29.1369 27.5927L29.156 27.5532C30.029 25.717 30.4717 23.747 30.4717 21.6986C30.4717 19.6503 30.029 17.6803 29.156 15.8441L29.1369 15.8046L26.518 17.4418L26.541 17.4945Z" fill="#10CE7C"/>
</g>
<defs>
<clipPath id="clip0_1_4060">
<rect width="31.5076" height="37.851" fill="white" transform="translate(-0.00012207 0.664307)"/>
</clipPath>
</defs>
</svg>
