<svg width="150" height="27" viewBox="0 0 150 27" fill="none" xmlns="http://www.w3.org/2000/svg">
<g clip-path="url(#clip0_1_4068)">
<path d="M46.2951 26.4912V6.56903H40.6573V0.726562H58.2553V6.57041H52.6176V26.4926H46.2964L46.2951 26.4912Z" fill="#130C03"/>
<path d="M0.100403 13.7114C0.100403 5.71486 6.2168 0.247314 13.9394 0.247314C18.5866 0.247314 22.7896 2.12609 25.4888 6.15896L19.9189 9.06289C18.415 7.01257 16.4671 5.91961 14.0072 5.91961C9.66722 5.91961 6.62631 9.30224 6.62631 13.7446C6.62631 18.187 9.94115 21.5018 13.8025 21.5018C16.9803 21.5018 19.27 19.5885 19.6795 17.0595V17.0249H14.2811V12.173H26.7533V13.2659C26.7533 21.672 21.7298 26.9348 13.7347 26.9348C6.18221 26.9348 0.100403 21.5018 0.100403 13.7114Z" fill="#130C03"/>
<path d="M31.0891 26.4912V0.726562H37.4103V26.4912H31.0891Z" fill="#130C03"/>
<path d="M113.971 26.4912V0.726562H120.292V26.4912H113.971Z" fill="#130C03"/>
<path d="M143.816 0.726562H150.001V26.4912H144.875L131.959 10.2602L132.062 26.4912H125.843V0.726562H131.106L144.022 16.8553L143.817 0.726562H143.816Z" fill="#130C03"/>
<path d="M73.5705 21.0913C69.6413 21.0913 66.3265 18.0158 66.3265 13.608C66.3265 9.43957 69.5044 6.12473 73.6396 6.12473C75.6761 6.12473 77.4539 6.89534 78.7475 8.17091C79.3714 6.17869 80.3426 4.31513 81.6334 2.64941C79.3728 1.14003 76.6224 0.280884 73.6728 0.280884C66.0872 0.280884 59.7992 5.95318 59.7992 13.5734C59.7992 21.57 66.1204 26.9338 73.5705 26.9338C76.545 26.9338 79.3161 26.1009 81.5891 24.6206C80.3136 22.9562 79.352 21.0816 78.7364 19.0645C77.4235 20.3345 75.6194 21.0913 73.5705 21.0913Z" fill="#130C03"/>
<path d="M96.2292 0.280884C91.4687 0.280884 87.22 2.51522 84.7145 6.06248C83.2286 8.16814 82.3556 10.7359 82.3556 13.5734C82.3556 16.411 83.2258 19.142 84.7006 21.2449C87.2006 24.8101 91.441 26.9338 96.1269 26.9338C103.747 26.9338 110.035 21.4662 110.035 13.6412C110.035 5.81622 103.782 0.280884 96.2292 0.280884ZM96.1269 21.0913C92.1978 21.0913 88.8829 18.0158 88.8829 13.608C88.8829 9.43957 92.0608 6.12473 96.196 6.12473C100.331 6.12473 103.509 9.40498 103.509 13.6426C103.509 17.8802 100.331 21.0913 96.1282 21.0913H96.1269Z" fill="#130C03"/>
</g>
<defs>
<clipPath id="clip0_1_4068">
<rect width="149.899" height="26.6875" fill="white" transform="translate(0.100403 0.246094)"/>
</clipPath>
</defs>
</svg>
