<svg width="604" height="407" viewBox="0 0 604 407" fill="none" xmlns="http://www.w3.org/2000/svg">
<path d="M319.046 191.951C318.882 191.951 318.72 191.881 318.605 191.75C318.394 191.507 318.42 191.139 318.665 190.928L413.472 108.94C413.715 108.728 414.083 108.754 414.294 109C414.506 109.242 414.48 109.61 414.234 109.822L319.427 191.81C319.318 191.904 319.182 191.951 319.046 191.951Z" fill="#687076"/>
<path d="M464.207 254.529C464.186 254.53 464.164 254.529 464.142 254.527L459.258 254.011C458.989 253.984 458.784 253.699 458.803 253.378C458.823 253.057 459.066 252.815 459.324 252.847L464.208 253.364C464.477 253.39 464.682 253.676 464.662 253.997C464.646 254.292 464.448 254.515 464.207 254.529ZM390.943 246.79C390.921 246.791 390.899 246.789 390.877 246.788L351.801 242.659C351.532 242.632 351.327 242.347 351.347 242.026C351.364 241.705 351.584 241.453 351.868 241.495L390.943 245.624C391.212 245.651 391.417 245.936 391.397 246.258C391.381 246.55 391.183 246.776 390.943 246.79Z" fill="#687076"/>
<path d="M118.414 282.513C118.234 282.492 118.089 282.305 118.066 282.044C118.041 281.728 118.204 281.422 118.433 281.361L239.746 248.749C239.977 248.685 240.181 248.893 240.207 249.209C240.233 249.525 240.069 249.831 239.84 249.892L118.527 282.504C118.489 282.513 118.449 282.517 118.414 282.513Z" fill="#687076"/>
<path d="M239.65 194.162C239.522 194.162 239.394 194.12 239.287 194.034L128.574 106.098C128.323 105.897 128.279 105.532 128.48 105.279C128.681 105.026 129.049 104.986 129.299 105.185L240.012 193.12C240.263 193.321 240.307 193.687 240.106 193.94C239.989 194.086 239.819 194.162 239.65 194.162Z" fill="#687076"/>
<path d="M232.299 355.529C232.223 355.529 232.145 355.513 232.069 355.482C231.774 355.354 231.636 355.01 231.764 354.718L233.953 349.634C234.081 349.336 234.42 349.201 234.718 349.329C235.013 349.456 235.151 349.801 235.023 350.093L232.836 355.177C232.74 355.396 232.526 355.529 232.299 355.529ZM243.705 329.025C243.63 329.025 243.551 329.01 243.476 328.978C243.181 328.85 243.043 328.506 243.17 328.214L261.605 285.376C261.733 285.081 262.075 284.94 262.37 285.07C262.665 285.198 262.803 285.543 262.675 285.835L244.24 328.673C244.144 328.895 243.93 329.025 243.705 329.025Z" fill="#687076"/>
<path d="M209.072 224.797C209.033 224.797 208.994 224.792 208.955 224.787L163.288 215.332C162.972 215.266 162.769 214.958 162.834 214.643C162.899 214.327 163.197 214.129 163.523 214.189L209.19 223.643C209.505 223.709 209.709 224.017 209.644 224.332C209.586 224.606 209.343 224.797 209.072 224.797ZM140.573 210.616C140.534 210.616 140.495 210.611 140.456 210.603L134.748 209.421C134.433 209.355 134.229 209.048 134.294 208.732C134.36 208.419 134.665 208.22 134.983 208.278L140.691 209.46C141.006 209.525 141.21 209.833 141.145 210.149C141.087 210.425 140.845 210.616 140.573 210.616Z" fill="#818181"/>
<path d="M261.853 163.522C261.589 163.522 261.352 163.342 261.287 163.076L250.31 117.751C250.235 117.438 250.428 117.124 250.741 117.046C251.049 116.976 251.367 117.164 251.446 117.477L262.422 162.802C262.498 163.115 262.304 163.428 261.991 163.506C261.944 163.517 261.9 163.522 261.853 163.522Z" fill="#818181"/>
<path d="M336.769 224.798C336.508 224.798 336.271 224.62 336.203 224.357C336.125 224.044 336.312 223.728 336.626 223.65L445.441 196.214C445.752 196.133 446.073 196.324 446.149 196.637C446.227 196.95 446.039 197.266 445.726 197.344L336.91 224.78C336.863 224.793 336.816 224.798 336.769 224.798Z" fill="#818181"/>
<path d="M434.003 350.81C433.886 350.81 433.769 350.774 433.667 350.703L311.646 263.895C311.382 263.707 311.322 263.344 311.508 263.083C311.698 262.817 312.064 262.762 312.319 262.945L434.34 349.753C434.604 349.941 434.664 350.304 434.478 350.565C434.364 350.724 434.186 350.81 434.003 350.81Z" fill="#687076"/>
<path d="M514.74 303.074C503.002 304.918 491.351 301.949 481.927 294.718C481.675 294.522 481.599 294.141 481.791 293.886C481.984 293.631 482.321 293.557 482.577 293.744C482.592 293.755 482.658 293.805 482.671 293.819C491.804 300.829 503.138 303.716 514.559 301.922C521.615 300.813 528.294 297.906 533.875 293.516C534.132 293.317 534.495 293.36 534.693 293.612C534.892 293.866 534.849 294.232 534.597 294.43C528.859 298.945 521.992 301.934 514.74 303.074ZM549.262 271.47C549.187 271.482 549.108 271.478 549.031 271.461C548.72 271.383 548.528 271.068 548.605 270.754C549.158 268.536 549.526 266.243 549.707 263.948C549.731 263.627 550.009 263.393 550.334 263.413C550.655 263.44 550.894 263.719 550.868 264.04C550.684 266.399 550.301 268.752 549.735 271.036C549.677 271.27 549.484 271.435 549.262 271.47ZM465.936 257.98C465.893 257.987 465.848 257.989 465.802 257.985C465.482 257.962 465.24 257.683 465.266 257.359C465.444 255.001 465.822 252.646 466.387 250.359C466.465 250.046 466.778 249.857 467.091 249.932C467.405 250.009 467.597 250.325 467.519 250.636C466.971 252.862 466.604 255.152 466.428 257.446C466.406 257.724 466.197 257.939 465.936 257.98ZM533.954 227.157L533.499 227.543C524.336 220.503 512.998 217.616 501.578 219.411C494.501 220.523 487.803 223.443 482.214 227.853C481.966 228.054 481.597 228.011 481.396 227.758C481.198 227.503 481.238 227.138 481.492 226.939C487.238 222.404 494.121 219.402 501.396 218.259C513.137 216.414 524.788 219.383 534.21 226.617L533.954 227.157Z" fill="#687076"/>
<path d="M508.922 293.09C491.045 293.561 476.115 279.398 475.643 261.52C475.172 243.64 489.336 228.712 507.213 228.241C525.094 227.77 540.021 241.933 540.492 259.811C540.964 277.692 526.803 292.619 508.922 293.09ZM507.244 229.407C490.008 229.862 476.355 244.253 476.81 261.489C477.264 278.726 491.656 292.378 508.892 291.924C526.128 291.47 539.781 277.078 539.326 259.842C538.875 242.608 524.48 228.953 507.244 229.407Z" fill="#687076"/>
<path d="M511.407 258.979C513.853 257.675 515.474 255.079 515.396 252.139C515.286 247.973 511.808 244.676 507.645 244.786C503.494 244.895 500.195 248.373 500.304 252.537C500.382 255.477 502.137 257.984 504.632 259.158C499.036 260.791 495.019 266.047 495.18 272.16C495.289 276.282 521.653 275.587 521.544 271.465C521.383 265.35 517.084 260.315 511.407 258.979Z" fill="#687076"/>
<path d="M87.4628 332.163C70.2806 332.163 54.8104 321.957 48.0488 306.163C47.9235 305.868 48.0462 305.495 48.341 305.367C48.6386 305.239 48.9674 305.346 49.0926 305.643L48.5576 305.873L49.1135 305.69C55.6977 321.069 70.7478 330.999 87.4628 330.999C89.5923 330.999 91.74 330.832 93.8434 330.503C94.1722 330.454 94.4593 330.67 94.5089 330.989C94.5585 331.307 94.3419 331.605 94.0235 331.654C91.8575 331.993 89.6523 332.163 87.4628 332.163ZM118.213 318.877C118.069 318.877 117.926 318.825 117.813 318.718C117.578 318.496 117.568 318.128 117.787 317.896C119.358 316.228 120.799 314.415 122.072 312.509C122.25 312.241 122.613 312.173 122.881 312.35C123.15 312.528 123.221 312.89 123.041 313.159C121.73 315.117 120.251 316.98 118.635 318.694C118.523 318.814 118.369 318.877 118.213 318.877ZM125.809 273.015L126.35 272.795L125.77 272.923C119.186 257.542 104.136 247.615 87.421 247.615C85.2706 247.615 83.102 247.784 80.9777 248.118C80.6515 248.165 80.3618 247.951 80.3096 247.633C80.26 247.314 80.4766 247.017 80.795 246.965C82.9793 246.623 85.208 246.445 87.421 246.445C104.603 246.445 120.073 256.652 126.835 272.446L126.35 272.793L125.809 273.015ZM52.2895 266.412C52.1773 266.412 52.0651 266.381 51.9659 266.313C51.6971 266.135 51.6266 265.773 51.8067 265.504C53.1142 263.541 54.5938 261.678 56.2014 259.964C56.4232 259.729 56.7912 259.721 57.0261 259.937C57.2609 260.159 57.2714 260.527 57.0522 260.762C55.4864 262.43 54.0458 264.246 52.7749 266.154C52.6627 266.321 52.4774 266.412 52.2895 266.412Z" fill="#687076"/>
<path d="M87.4416 321.741C69.5574 321.741 55.0059 307.189 55.0059 289.305C55.0059 271.421 69.5574 256.869 87.4416 256.869C105.328 256.869 119.877 271.421 119.877 289.305C119.877 307.192 105.328 321.741 87.4416 321.741ZM87.4416 258.036C70.1994 258.036 56.1724 272.063 56.1724 289.305C56.1724 306.547 70.1994 320.574 87.4416 320.574C104.684 320.574 118.711 306.547 118.711 289.305C118.711 272.063 104.684 258.036 87.4416 258.036Z" fill="#687076"/>
<path d="M90.8237 287.704C93.3029 286.465 94.9914 283.912 94.9914 280.971C94.9914 276.804 91.6014 273.416 87.4364 273.416C83.2844 273.416 79.8944 276.806 79.8944 280.971C79.8944 283.912 81.5829 286.465 84.0464 287.704C78.4095 289.189 74.2549 294.338 74.2549 300.452C74.2549 304.576 100.628 304.576 100.628 300.452C100.628 294.338 96.4606 289.192 90.8237 287.704Z" fill="#687076"/>
<path d="M104.264 128.095C97.0278 128.095 89.8799 126.248 83.5932 122.753C83.3113 122.597 83.2095 122.242 83.3661 121.96C83.5201 121.678 83.875 121.576 84.1595 121.733C90.2713 125.131 97.2235 126.929 104.264 126.929C112.709 126.929 120.833 124.405 127.759 119.627C128.026 119.447 128.386 119.509 128.571 119.776C128.754 120.042 128.688 120.404 128.422 120.587C121.3 125.501 112.947 128.095 104.264 128.095ZM142.755 102.951C142.676 102.951 142.598 102.935 142.52 102.901C142.225 102.773 142.092 102.429 142.22 102.134C142.989 100.378 143.642 98.5589 144.153 96.7295C144.24 96.4215 144.558 96.2389 144.871 96.325C145.182 96.4111 145.362 96.7321 145.276 97.0426C144.751 98.9242 144.08 100.795 143.287 102.601C143.19 102.823 142.976 102.951 142.755 102.951ZM63.3681 95.7508C63.102 95.7508 62.8645 95.5708 62.8018 95.302C62.3504 93.3969 62.032 91.437 61.8519 89.4746C61.8232 89.1562 62.0581 88.8717 62.3791 88.8404C62.7053 88.8117 62.9819 89.0466 63.0132 89.3676C63.1907 91.2752 63.5012 93.1829 63.937 95.0332C64.0101 95.3463 63.817 95.6595 63.5038 95.7352C63.4569 95.743 63.4125 95.7508 63.3681 95.7508ZM66.6329 67.3784C66.5441 67.3784 66.4554 67.3601 66.3745 67.3158C66.0848 67.1722 65.9674 66.8225 66.1135 66.5355C73.3736 51.9578 87.9931 42.9022 104.267 42.9022C119.053 42.9022 132.566 50.3972 140.414 62.9498C140.583 63.2238 140.5 63.5839 140.228 63.7536C139.957 63.9206 139.594 63.8397 139.425 63.5683C131.791 51.3576 118.649 44.0687 104.267 44.0687C88.4393 44.0687 74.2192 52.8764 67.1574 67.0548C67.053 67.2584 66.8468 67.3784 66.6329 67.3784Z" fill="#687076"/>
<path d="M104.265 117.934C86.3807 117.934 71.8291 103.382 71.8291 85.4983C71.8291 67.6116 86.3807 53.0626 104.265 53.0626C122.152 53.0626 136.701 67.6142 136.701 85.4983C136.701 103.385 122.149 117.934 104.265 117.934ZM104.265 54.2291C87.0227 54.2291 72.9956 68.2562 72.9956 85.4983C72.9956 102.74 87.0227 116.768 104.265 116.768C121.507 116.768 135.534 102.74 135.534 85.4983C135.534 68.2588 121.507 54.2291 104.265 54.2291Z" fill="#687076"/>
<path d="M107.645 83.9016C110.124 82.662 111.812 80.1098 111.812 77.1687C111.812 73.001 108.422 69.6136 104.257 69.6136C100.105 69.6136 96.7153 73.0036 96.7153 77.1687C96.7153 80.1098 98.4038 82.662 100.867 83.9016C95.2304 85.3866 91.0758 90.5355 91.0758 96.6499C91.0758 100.773 117.449 100.773 117.449 96.6499C117.452 90.5355 113.284 85.3866 107.645 83.9016Z" fill="#687076"/>
<path d="M438.079 122.518C438.048 122.518 438.016 122.516 437.982 122.511C424.882 120.316 413.545 112.429 406.883 100.874C406.724 100.595 406.818 100.237 407.097 100.078C407.379 99.9161 407.734 100.013 407.893 100.292C414.383 111.545 425.422 119.225 438.175 121.362C438.494 121.415 438.708 121.715 438.653 122.033C438.606 122.318 438.358 122.518 438.079 122.518ZM457.205 121.506C456.95 121.506 456.717 121.336 456.644 121.081C456.558 120.77 456.738 120.449 457.049 120.363C458.562 119.94 460.079 119.423 461.556 118.828C461.858 118.706 462.192 118.854 462.315 119.152C462.435 119.452 462.292 119.791 461.991 119.911C460.473 120.522 458.917 121.052 457.362 121.488C457.31 121.498 457.257 121.506 457.205 121.506ZM483.268 101.315C483.169 101.315 483.067 101.289 482.976 101.237C482.697 101.075 482.603 100.717 482.764 100.441C486.585 93.8773 488.608 86.3666 488.608 78.7228C488.608 73.5478 487.705 68.4903 485.922 63.6859C485.81 63.3831 485.964 63.0491 486.264 62.9369C486.569 62.8247 486.901 62.9786 487.013 63.2814C488.842 68.2163 489.771 73.4121 489.771 78.7228C489.769 86.5728 487.694 94.287 483.769 101.028C483.665 101.21 483.469 101.315 483.268 101.315ZM401.966 73.2425C401.94 73.2425 401.914 73.2399 401.885 73.2373C401.567 73.1929 401.345 72.898 401.389 72.5797C401.614 70.9643 401.93 69.3515 402.326 67.7831C402.407 67.4725 402.731 67.2872 403.034 67.3603C403.347 67.4386 403.535 67.757 403.456 68.0675C403.07 69.5942 402.762 71.1678 402.543 72.7415C402.504 73.0337 402.256 73.2425 401.966 73.2425ZM411.559 51.4256C411.429 51.4256 411.298 51.3812 411.189 51.2925C410.941 51.0889 410.907 50.721 411.11 50.4731C419.587 40.2066 432.074 34.3165 445.37 34.3165L445.543 34.3191C445.866 34.3191 446.125 34.5801 446.125 34.9011C446.125 35.2247 445.864 35.4831 445.543 35.4831L445.355 35.4804C432.421 35.4804 420.263 41.2139 412.008 51.2116C411.893 51.3525 411.726 51.4256 411.559 51.4256ZM476.034 47.9965C475.888 47.9965 475.739 47.9417 475.627 47.8294C474.492 46.7177 473.289 45.6608 472.049 44.69C471.796 44.4917 471.752 44.1237 471.95 43.8706C472.151 43.6148 472.516 43.5757 472.769 43.7714C474.043 44.7709 475.28 45.8539 476.444 46.997C476.673 47.2214 476.679 47.592 476.452 47.8216C476.337 47.9391 476.185 47.9965 476.034 47.9965Z" fill="#687076"/>
<path d="M445.372 111.153C427.485 111.153 412.936 96.6012 412.936 78.7171C412.936 60.8303 427.488 46.2814 445.372 46.2814C463.256 46.2814 477.807 60.8329 477.807 78.7171C477.807 96.6038 463.256 111.153 445.372 111.153ZM445.372 47.4505C428.13 47.4505 414.103 61.4775 414.103 78.7197C414.103 95.9618 428.13 109.989 445.372 109.989C462.614 109.989 476.641 95.9618 476.641 78.7197C476.641 61.4775 462.614 47.4505 445.372 47.4505Z" fill="#687076"/>
<path d="M448.752 77.1202C451.232 75.8806 452.92 73.3283 452.92 70.3872C452.92 66.2195 449.53 62.8322 445.365 62.8322C441.213 62.8322 437.823 66.2221 437.823 70.3872C437.823 73.3283 439.512 75.8806 441.975 77.1202C436.338 78.6051 432.184 83.754 432.184 89.8684C432.184 93.9917 458.557 93.9917 458.557 89.8684C458.56 83.754 454.392 78.6051 448.752 77.1202Z" fill="#687076"/>
<path d="M112.924 182.268C101.207 182.268 91.7075 191.767 91.7075 203.484C91.7075 215.202 101.207 224.701 112.924 224.701C124.642 224.701 134.141 215.202 134.141 203.484C134.144 191.767 124.642 182.268 112.924 182.268Z" fill="#818181"/>
<path d="M115.176 202.419C116.828 201.591 117.953 199.892 117.953 197.933C117.953 195.156 115.696 192.899 112.919 192.899C110.153 192.899 107.895 195.156 107.895 197.933C107.895 199.892 109.02 201.591 110.662 202.419C106.906 203.408 104.14 206.837 104.14 210.911C104.14 213.659 121.709 213.659 121.709 210.911C121.709 206.839 118.934 203.41 115.176 202.419Z" fill="white"/>
<path d="M245.574 77.0548C235.845 77.0548 227.956 84.9413 227.956 94.6728C227.956 104.404 235.843 112.291 245.574 112.291C255.303 112.291 263.192 104.404 263.192 94.6728C263.192 84.9413 255.303 77.0548 245.574 77.0548Z" fill="#687076"/>
<path d="M247.442 93.787C248.815 93.1007 249.746 91.6888 249.746 90.063C249.746 87.7586 247.872 85.8849 245.568 85.8849C243.272 85.8849 241.398 87.7586 241.398 90.063C241.398 91.6888 242.332 93.1007 243.694 93.787C240.576 94.609 238.279 97.4562 238.279 100.838C238.279 103.119 252.867 103.119 252.867 100.838C252.867 97.4562 250.56 94.6064 247.442 93.787Z" fill="white"/>
<path d="M234.178 338.213C224.449 338.213 216.56 346.099 216.56 355.831C216.56 365.56 224.446 373.449 234.178 373.449C243.906 373.449 251.795 365.562 251.795 355.831C251.795 346.099 243.906 338.213 234.178 338.213Z" fill="#687076"/>
<path d="M236.049 354.947C237.422 354.261 238.353 352.849 238.353 351.223C238.353 348.919 236.479 347.045 234.175 347.045C231.879 347.045 230.005 348.919 230.005 351.223C230.005 352.849 230.939 354.261 232.301 354.947C229.183 355.769 226.886 358.616 226.886 361.999C226.886 364.279 241.474 364.279 241.474 361.999C241.472 358.616 239.167 355.769 236.049 354.947Z" fill="white"/>
<path d="M439.344 333.065C429.615 333.065 421.726 340.951 421.726 350.683C421.726 360.411 429.612 368.3 439.344 368.3C449.072 368.3 456.961 360.414 456.961 350.683C456.961 340.954 449.072 333.065 439.344 333.065Z" fill="#818181"/>
<path d="M441.211 349.799C442.584 349.112 443.516 347.701 443.516 346.075C443.516 343.77 441.642 341.897 439.338 341.897C437.041 341.897 435.167 343.77 435.167 346.075C435.167 347.701 436.102 349.112 437.464 349.799C434.345 350.621 432.049 353.468 432.049 356.85C432.049 359.131 446.637 359.131 446.637 356.85C446.637 353.468 444.33 350.621 441.211 349.799Z" fill="white"/>
<path d="M445.586 164.117C430.134 164.117 417.61 176.644 417.61 192.093C417.61 207.545 430.137 220.069 445.586 220.069C461.038 220.069 473.562 207.542 473.562 192.093C473.564 176.641 461.038 164.117 445.586 164.117Z" fill="#687076"/>
<path d="M448.556 190.689C450.735 189.6 452.217 187.359 452.217 184.775C452.217 181.114 449.24 178.139 445.581 178.139C441.932 178.139 438.957 181.114 438.957 184.775C438.957 187.359 440.44 189.6 442.606 190.689C437.653 191.994 434.007 196.516 434.007 201.884C434.007 205.507 457.173 205.507 457.173 201.884C457.17 196.514 453.509 191.994 448.556 190.689Z" fill="white"/>
<path d="M319.496 107.653C319.496 110.897 316.868 113.525 313.624 113.525C310.38 113.525 307.752 110.897 307.752 107.653C307.752 104.409 310.38 101.781 313.624 101.781C316.868 101.781 319.496 104.409 319.496 107.653Z" fill="#818181"/>
<path d="M183.393 300.407C183.393 302.124 182.002 303.515 180.284 303.515C178.567 303.515 177.176 302.124 177.176 300.407C177.176 298.69 178.567 297.299 180.284 297.299C182.002 297.299 183.393 298.69 183.393 300.407Z" fill="#818181"/>
<path d="M155.067 176.739C155.067 178.456 153.676 179.847 151.959 179.847C150.242 179.847 148.851 178.456 148.851 176.739C148.851 175.022 150.242 173.631 151.959 173.631C153.676 173.631 155.067 175.025 155.067 176.739Z" fill="#818181"/>
<path d="M402.403 284.865C402.403 287.154 400.547 289.009 398.258 289.009C395.97 289.009 394.114 287.154 394.114 284.865C394.114 282.576 395.97 280.721 398.258 280.721C400.547 280.718 402.403 282.574 402.403 284.865Z" fill="#818181"/>
<path d="M416.91 228.211C416.91 228.592 416.599 228.903 416.218 228.903C415.837 228.903 415.526 228.592 415.526 228.211C415.526 227.83 415.837 227.52 416.218 227.52C416.602 227.522 416.91 227.83 416.91 228.211Z" fill="#687076"/>
<path d="M364.404 185.722C364.404 187.82 362.702 189.521 360.604 189.521C358.506 189.521 356.804 187.82 356.804 185.722C356.804 183.624 358.506 181.922 360.604 181.922C362.702 181.922 364.404 183.624 364.404 185.722Z" fill="#687076"/>
<path d="M372.694 92.7989C374.22 92.7989 375.457 91.5616 375.457 90.0353C375.457 88.5089 374.22 87.2716 372.694 87.2716C371.167 87.2716 369.93 88.5089 369.93 90.0353C369.93 91.5616 371.167 92.7989 372.694 92.7989Z" fill="#687076"/>
<path d="M168.886 89.3435C171.556 89.3435 173.721 87.1784 173.721 84.5077C173.721 81.837 171.556 79.672 168.886 79.672C166.215 79.672 164.05 81.837 164.05 84.5077C164.05 87.1784 166.215 89.3435 168.886 89.3435Z" fill="#687076"/>
<path d="M146.693 245.033C146.693 246.56 145.456 247.797 143.93 247.797C142.403 247.797 141.166 246.56 141.166 245.033C141.166 243.507 142.403 242.27 143.93 242.27C145.456 242.27 146.693 243.507 146.693 245.033Z" fill="#687076"/>
<path d="M289.79 344.971C289.79 346.497 288.553 347.734 287.026 347.734C285.499 347.734 284.262 346.497 284.262 344.971C284.262 343.444 285.499 342.207 287.026 342.207C288.553 342.207 289.79 343.444 289.79 344.971Z" fill="#687076"/>
<path d="M371.215 363.245C371.583 361.568 370.523 359.911 368.846 359.543C367.17 359.174 365.512 360.235 365.144 361.912C364.776 363.588 365.836 365.246 367.513 365.614C369.189 365.982 370.847 364.922 371.215 363.245Z" fill="#818181"/>
<path d="M331.242 41.6757C332.768 41.6757 334.006 40.4384 334.006 38.9121C334.006 37.3858 332.768 36.1484 331.242 36.1484C329.716 36.1484 328.478 37.3858 328.478 38.9121C328.478 40.4384 329.716 41.6757 331.242 41.6757Z" fill="#687076"/>
<path d="M428.655 143.815C426.048 143.815 423.927 141.693 423.927 139.086C423.927 136.479 426.048 134.358 428.655 134.358C431.263 134.358 433.384 136.479 433.384 139.086C433.384 141.693 431.263 143.815 428.655 143.815ZM428.655 135.527C426.69 135.527 425.093 137.124 425.093 139.089C425.093 141.054 426.69 142.651 428.655 142.651C430.621 142.651 432.218 141.054 432.218 139.089C432.218 137.124 430.621 135.527 428.655 135.527Z" fill="#818181"/>
<path d="M148.614 306.971C148.614 308.879 147.066 310.426 145.158 310.426C143.251 310.426 141.703 308.879 141.703 306.971C141.703 305.063 143.251 303.516 145.158 303.516C147.066 303.516 148.614 305.063 148.614 306.971Z" fill="white"/>
<path d="M145.16 311.01C142.934 311.01 141.123 309.199 141.123 306.973C141.123 304.747 142.934 302.936 145.16 302.936C147.386 302.936 149.197 304.747 149.197 306.973C149.197 309.199 147.386 311.01 145.16 311.01ZM145.16 304.1C143.576 304.1 142.29 305.389 142.29 306.97C142.29 308.552 143.579 309.841 145.16 309.841C146.744 309.841 148.031 308.552 148.031 306.97C148.031 305.389 146.742 304.1 145.16 304.1Z" fill="#687076"/>
<path d="M198.247 343.481C194.688 343.481 191.791 340.584 191.791 337.025C191.791 333.465 194.688 330.568 198.247 330.568C201.807 330.568 204.704 333.465 204.704 337.025C204.704 340.584 201.807 343.481 198.247 343.481ZM198.247 331.738C195.33 331.738 192.958 334.11 192.958 337.027C192.958 339.945 195.33 342.317 198.247 342.317C201.165 342.317 203.537 339.945 203.537 337.027C203.537 334.11 201.165 331.738 198.247 331.738Z" fill="#687076"/>
<path d="M118.452 152.108C114.321 152.108 110.962 148.747 110.962 144.616C110.962 140.484 114.323 137.123 118.452 137.123C122.583 137.123 125.944 140.484 125.944 144.616C125.944 148.747 122.583 152.108 118.452 152.108ZM118.452 138.29C114.965 138.29 112.126 141.126 112.126 144.616C112.126 148.105 114.963 150.941 118.452 150.941C121.941 150.941 124.778 148.105 124.778 144.616C124.778 141.129 121.941 138.29 118.452 138.29Z" fill="#687076"/>
<path d="M200.323 143.815C195.239 143.815 191.103 139.679 191.103 134.595C191.103 129.511 195.239 125.375 200.323 125.375C205.406 125.375 209.54 129.511 209.54 134.595C209.54 139.679 205.404 143.815 200.323 143.815ZM200.323 126.544C195.881 126.544 192.269 130.156 192.269 134.598C192.269 139.039 195.881 142.651 200.323 142.651C204.762 142.651 208.373 139.039 208.373 134.598C208.373 130.156 204.762 126.544 200.323 126.544Z" fill="#687076"/>
<path d="M312.935 160.399C307.851 160.399 303.715 156.263 303.715 151.179C303.715 146.095 307.851 141.959 312.935 141.959C318.018 141.959 322.152 146.095 322.152 151.179C322.152 156.263 318.016 160.399 312.935 160.399ZM312.935 143.126C308.493 143.126 304.881 146.737 304.881 151.179C304.881 155.621 308.493 159.233 312.935 159.233C317.374 159.233 320.986 155.621 320.986 151.179C320.986 146.737 317.374 143.126 312.935 143.126Z" fill="#687076"/>
<path d="M500.351 154.249C495.839 154.249 492.167 150.577 492.167 146.065C492.167 141.553 495.839 137.881 500.351 137.881C504.863 137.881 508.535 141.553 508.535 146.065C508.535 150.577 504.863 154.249 500.351 154.249ZM500.351 139.048C496.481 139.048 493.334 142.195 493.334 146.065C493.334 149.935 496.481 153.082 500.351 153.082C504.221 153.082 507.368 149.935 507.368 146.065C507.368 142.195 504.221 139.048 500.351 139.048Z" fill="#818181"/>
<path d="M450.418 316.535C444.191 316.535 439.126 311.47 439.126 305.243C439.126 299.017 444.191 293.951 450.418 293.951C456.645 293.951 461.71 299.017 461.71 305.243C461.71 311.47 456.645 316.535 450.418 316.535ZM450.418 295.12C444.833 295.12 440.292 299.661 440.292 305.246C440.292 310.831 444.833 315.372 450.418 315.372C456.003 315.372 460.544 310.831 460.544 305.246C460.544 299.661 456.003 295.12 450.418 295.12Z" fill="#818181"/>
<path d="M330.205 335.19C325.503 335.19 321.677 331.364 321.677 326.661C321.677 321.959 325.503 318.133 330.205 318.133C334.908 318.133 338.734 321.959 338.734 326.661C338.734 331.364 334.908 335.19 330.205 335.19ZM330.205 319.299C326.145 319.299 322.843 322.601 322.843 326.661C322.843 330.722 326.145 334.023 330.205 334.023C334.266 334.023 337.567 330.719 337.567 326.661C337.567 322.603 334.266 319.299 330.205 319.299Z" fill="#687076"/>
<path d="M204.119 276.917C204.119 279.015 202.417 280.717 200.319 280.717C198.221 280.717 196.52 279.015 196.52 276.917C196.52 274.819 198.221 273.117 200.319 273.117C202.42 273.117 204.119 274.819 204.119 276.917Z" fill="white"/>
<path d="M200.322 281.301C197.905 281.301 195.938 279.334 195.938 276.917C195.938 274.5 197.905 272.535 200.322 272.535C202.738 272.535 204.703 274.5 204.703 276.917C204.703 279.334 202.738 281.301 200.322 281.301ZM200.322 273.702C198.547 273.702 197.104 275.145 197.104 276.917C197.104 278.692 198.547 280.135 200.322 280.135C202.094 280.135 203.537 278.692 203.537 276.917C203.537 275.145 202.094 273.702 200.322 273.702Z" fill="#687076"/>
<path d="M197.212 195.394C197.212 197.492 195.51 199.193 193.412 199.193C191.314 199.193 189.612 197.492 189.612 195.394C189.612 193.295 191.314 191.594 193.412 191.594C195.51 191.594 197.212 193.295 197.212 195.394Z" fill="white"/>
<path d="M193.412 199.778C190.995 199.778 189.03 197.813 189.03 195.396C189.03 192.98 190.995 191.012 193.412 191.012C195.829 191.012 197.794 192.98 197.794 195.396C197.794 197.813 195.829 199.778 193.412 199.778ZM193.412 192.178C191.64 192.178 190.197 193.622 190.197 195.396C190.197 197.168 191.64 198.611 193.412 198.611C195.184 198.611 196.627 197.168 196.627 195.396C196.627 193.622 195.184 192.178 193.412 192.178Z" fill="#818181"/>
<path d="M385.129 191.942C385.129 193.659 383.738 195.05 382.021 195.05C380.304 195.05 378.913 193.659 378.913 191.942C378.913 190.225 380.304 188.834 382.021 188.834C383.738 188.834 385.129 190.225 385.129 191.942Z" fill="white"/>
<path d="M382.022 195.631C379.986 195.631 378.329 193.974 378.329 191.939C378.329 189.903 379.986 188.246 382.022 188.246C384.057 188.246 385.714 189.903 385.714 191.939C385.714 193.977 384.057 195.631 382.022 195.631ZM382.022 189.415C380.628 189.415 379.496 190.548 379.496 191.941C379.496 193.335 380.628 194.468 382.022 194.468C383.415 194.468 384.548 193.335 384.548 191.941C384.548 190.548 383.415 189.415 382.022 189.415Z" fill="#687076"/>
<path d="M271.088 288.471C271.057 288.471 271.025 288.468 270.991 288.463C254.206 285.652 239.686 275.547 231.144 260.74C230.985 260.461 231.079 260.103 231.358 259.944C231.643 259.782 231.995 259.879 232.154 260.158C240.518 274.663 254.743 284.561 271.182 287.315C271.5 287.367 271.714 287.667 271.659 287.985C271.615 288.27 271.37 288.471 271.088 288.471ZM295.668 287.171C295.413 287.171 295.18 287.004 295.107 286.746C295.021 286.435 295.201 286.114 295.512 286.028C297.48 285.477 299.434 284.812 301.324 284.05C301.619 283.927 301.96 284.076 302.083 284.373C302.203 284.671 302.06 285.01 301.759 285.133C299.834 285.913 297.837 286.592 295.828 287.153C295.773 287.163 295.718 287.171 295.668 287.171ZM329.159 261.226C329.059 261.226 328.958 261.199 328.866 261.145C328.587 260.983 328.493 260.625 328.655 260.349C333.582 251.886 336.186 242.204 336.184 232.355C336.184 225.687 335.02 219.165 332.721 212.975C332.609 212.672 332.762 212.338 333.065 212.226C333.371 212.114 333.702 212.268 333.814 212.571C336.16 218.891 337.35 225.549 337.35 232.357C337.353 242.412 334.694 252.295 329.662 260.936C329.555 261.121 329.359 261.226 329.159 261.226ZM224.69 225.152C224.664 225.152 224.638 225.149 224.61 225.147C224.291 225.102 224.067 224.807 224.111 224.489C224.396 222.422 224.8 220.355 225.309 218.341C225.39 218.028 225.713 217.842 226.016 217.918C226.329 217.996 226.517 218.315 226.439 218.625C225.938 220.598 225.544 222.626 225.265 224.648C225.228 224.941 224.978 225.152 224.69 225.152ZM237.016 197.119C236.885 197.119 236.755 197.074 236.645 196.986C236.397 196.782 236.364 196.414 236.567 196.166C247.423 183.011 263.423 175.469 280.462 175.469H280.684C281.007 175.469 281.266 175.73 281.266 176.051C281.266 176.374 281.005 176.633 280.684 176.633H280.462C263.773 176.633 248.102 184.023 237.465 196.907C237.35 197.048 237.186 197.119 237.016 197.119ZM319.86 192.716C319.714 192.716 319.565 192.661 319.453 192.549C317.997 191.122 316.444 189.759 314.839 188.499C314.586 188.301 314.544 187.933 314.743 187.68C314.941 187.424 315.306 187.385 315.562 187.583C317.198 188.87 318.782 190.261 320.27 191.714C320.5 191.939 320.505 192.309 320.278 192.539C320.163 192.656 320.014 192.716 319.86 192.716Z" fill="#818181"/>
<path d="M280.463 304.791C280.14 304.791 279.806 304.53 279.806 304.206C279.806 303.885 279.991 303.624 280.315 303.624L280.479 303.627C292.671 303.627 304.715 300.49 315.29 294.553C315.574 294.394 315.926 294.495 316.083 294.775C316.239 295.056 316.14 295.411 315.861 295.568C305.112 301.599 292.87 304.791 280.463 304.791ZM351.368 244.617C351.337 244.617 351.306 244.614 351.274 244.609C350.956 244.557 350.742 244.256 350.794 243.938C351.037 242.451 351.235 240.929 351.387 239.41C351.418 239.092 351.723 238.875 352.023 238.888C352.342 238.92 352.577 239.204 352.545 239.525C352.394 241.065 352.19 242.612 351.945 244.126C351.898 244.416 351.65 244.617 351.368 244.617ZM208.942 225.97C208.924 225.97 208.906 225.968 208.888 225.968C208.567 225.936 208.332 225.652 208.363 225.331C208.512 223.789 208.713 222.239 208.956 220.73C209.008 220.414 209.297 220.2 209.624 220.247C209.942 220.3 210.159 220.597 210.106 220.915C209.866 222.4 209.671 223.924 209.524 225.443C209.493 225.746 209.24 225.97 208.942 225.97ZM245.22 170.309C245.016 170.309 244.818 170.202 244.711 170.011C244.554 169.732 244.651 169.377 244.933 169.218C255.718 163.137 268.002 159.922 280.461 159.922H280.756C281.079 159.922 281.338 160.183 281.338 160.504C281.338 160.828 281.077 161.086 280.756 161.086H280.461C268.203 161.086 256.118 164.249 245.504 170.233C245.415 170.285 245.316 170.309 245.22 170.309Z" fill="#687076"/>
<path d="M280.462 277.2C255.736 277.2 235.62 257.085 235.62 232.358C235.62 207.631 255.738 187.516 280.462 187.516C305.189 187.516 325.304 207.631 325.304 232.358C325.304 257.082 305.189 277.2 280.462 277.2ZM280.462 188.682C256.378 188.682 236.787 208.276 236.787 232.358C236.787 256.443 256.38 276.033 280.462 276.033C304.544 276.033 324.138 256.44 324.138 232.358C324.138 208.273 304.547 188.682 280.462 188.682Z" fill="#687076"/>
<path d="M285.16 230.135C288.607 228.412 290.951 224.866 290.951 220.776C290.951 214.985 286.243 210.278 280.452 210.278C274.682 210.278 269.972 214.985 269.972 220.776C269.972 224.863 272.315 228.41 275.742 230.135C267.907 232.199 262.137 239.352 262.137 247.847C262.137 253.577 298.785 253.577 298.785 247.847C298.785 239.352 292.994 232.199 285.16 230.135Z" fill="#687076"/>
</svg>
