<svg width="16" height="17" viewBox="0 0 16 17" fill="none" xmlns="http://www.w3.org/2000/svg">
<g clip-path="url(#clip0_2_136)">
<path d="M6.06004 6.53947C6.21678 6.09391 6.52614 5.71821 6.93334 5.47889C7.34055 5.23958 7.8193 5.1521 8.28483 5.23194C8.75035 5.31179 9.17259 5.55382 9.47676 5.91515C9.78093 6.27649 9.94741 6.73382 9.94671 7.20614C9.94671 8.53947 7.94671 9.20614 7.94671 9.20614M8.00004 11.8728H8.00671M14.6667 8.53947C14.6667 12.2214 11.6819 15.2061 8.00004 15.2061C4.31814 15.2061 1.33337 12.2214 1.33337 8.53947C1.33337 4.85757 4.31814 1.8728 8.00004 1.8728C11.6819 1.8728 14.6667 4.85757 14.6667 8.53947Z" stroke="#98A2B3" stroke-width="1.33333" stroke-linecap="round" stroke-linejoin="round"/>
</g>
<defs>
<clipPath id="clip0_2_136">
<rect width="16" height="16" fill="white" transform="translate(3.05176e-05 0.539551)"/>
</clipPath>
</defs>
</svg>
