<svg width="31" height="31" viewBox="0 0 31 31" fill="none" xmlns="http://www.w3.org/2000/svg">
<path d="M27.4471 7.10482C27.1902 7.10482 26.9438 7.00275 26.7621 6.82108C26.5804 6.6394 26.4784 6.393 26.4784 6.13607C26.4784 5.87914 26.5804 5.63273 26.7621 5.45106C26.9438 5.26938 27.1902 5.16732 27.4471 5.16732C27.704 5.16732 27.9504 5.26938 28.1321 5.45106C28.3138 5.63273 28.4159 5.87914 28.4159 6.13607C28.4159 6.393 28.3138 6.6394 28.1321 6.82108C27.9504 7.00275 27.704 7.10482 27.4471 7.10482ZM27.4471 7.10482V11.9486C27.4471 12.8502 27.4471 13.3009 27.336 13.6665C27.2129 14.0731 26.9913 14.4431 26.691 14.7437C26.3906 15.0443 26.0208 15.2661 25.6142 15.3896C25.2474 15.5007 24.7966 15.5007 23.895 15.5007M3.55127 23.8965C3.8082 23.8965 4.0546 23.9985 4.23628 24.1802C4.41796 24.3619 4.52002 24.6083 4.52002 24.8652C4.52002 25.1222 4.41796 25.3686 4.23628 25.5502C4.0546 25.7319 3.8082 25.834 3.55127 25.834C3.29434 25.834 3.04794 25.7319 2.86626 25.5502C2.68458 25.3686 2.58252 25.1222 2.58252 24.8652C2.58252 24.6083 2.68458 24.3619 2.86626 24.1802C3.04794 23.9985 3.29434 23.8965 3.55127 23.8965ZM3.55127 23.8965V19.0527C3.55127 18.1512 3.55127 17.7004 3.66235 17.3348C3.78551 16.9282 4.00707 16.5582 4.30741 16.2576C4.60774 15.957 4.97758 15.7352 5.38414 15.6117C5.75098 15.5007 6.20177 15.5007 7.10335 15.5007M7.10335 3.55273C7.10335 3.80966 7.00129 4.05607 6.81961 4.23774C6.63794 4.41942 6.39153 4.52148 6.1346 4.52148C5.87767 4.52148 5.63127 4.41942 5.44959 4.23774C5.26792 4.05607 5.16585 3.80966 5.16585 3.55273C5.16585 3.29581 5.26792 3.0494 5.44959 2.86772C5.63127 2.68605 5.87767 2.58398 6.1346 2.58398C6.39153 2.58398 6.63794 2.68605 6.81961 2.86772C7.00129 3.0494 7.10335 3.29581 7.10335 3.55273ZM7.10335 3.55273H11.9471C12.8487 3.55273 13.2995 3.55273 13.665 3.66382C14.0717 3.78698 14.4417 4.00854 14.7422 4.30887C15.0428 4.60921 15.2646 4.97904 15.3881 5.38561C15.4992 5.75244 15.4992 6.20323 15.4992 7.10482M23.895 27.4486C23.895 27.1916 23.9971 26.9452 24.1788 26.7636C24.3604 26.5819 24.6068 26.4798 24.8638 26.4798C25.1207 26.4798 25.3671 26.5819 25.5488 26.7636C25.7305 26.9452 25.8325 27.1916 25.8325 27.4486C25.8325 27.7055 25.7305 27.9519 25.5488 28.1336C25.3671 28.3153 25.1207 28.4173 24.8638 28.4173C24.6068 28.4173 24.3604 28.3153 24.1788 28.1336C23.9971 27.9519 23.895 27.7055 23.895 27.4486ZM23.895 27.4486H19.0513C18.1497 27.4486 17.6989 27.4486 17.3334 27.3375C16.9267 27.2143 16.5567 26.9928 16.2561 26.6924C15.9556 26.3921 15.7337 26.0223 15.6103 25.6157C15.4992 25.2489 15.4992 24.7981 15.4992 23.8965" stroke="black" stroke-width="1.9375" stroke-linecap="round" stroke-linejoin="round"/>
<path d="M7.1665 15.4368C7.1665 11.4792 7.1665 9.50035 8.39617 8.27068C9.62584 7.04102 11.6047 7.04102 15.5623 7.04102C19.52 7.04102 21.4988 7.04102 22.7285 8.27068C23.9582 9.50035 23.9582 11.4792 23.9582 15.4368C23.9582 19.3945 23.9582 21.3733 22.7285 22.603C21.4988 23.8327 19.52 23.8327 15.5623 23.8327C11.6047 23.8327 9.62584 23.8327 8.39617 22.603C7.1665 21.3733 7.1665 19.3945 7.1665 15.4368Z" stroke="black" stroke-width="1.9375" stroke-linecap="round" stroke-linejoin="round"/>
<path d="M16.143 18.7298L14.2571 12.8902C14.1917 12.7059 14.0699 12.5469 13.909 12.4358C13.748 12.3248 13.5562 12.2673 13.3607 12.2715C13.1654 12.2675 12.9739 12.3252 12.8132 12.4362C12.6526 12.5473 12.5309 12.7061 12.4656 12.8902L10.5798 18.7298M19.3721 12.2715V18.7298M11.2734 16.7923H15.448" stroke="black" stroke-width="1.9375" stroke-linecap="round" stroke-linejoin="round"/>
</svg>
