<svg width="17" height="17" viewBox="0 0 17 17" fill="none" xmlns="http://www.w3.org/2000/svg">
<path d="M12.8719 5.99219H10.2141L10.6773 3.4454C10.6959 3.33216 10.6693 3.21615 10.6032 3.12236C10.537 3.02857 10.4367 2.96452 10.3238 2.944C10.2109 2.92349 10.0945 2.94815 9.99957 3.01268C9.90468 3.07722 9.83894 3.17645 9.81653 3.28899L9.32434 5.99219H6.71411L7.17731 3.4454C7.19592 3.33216 7.16929 3.21615 7.10317 3.12236C7.03704 3.02857 6.93672 2.96452 6.82381 2.944C6.71091 2.92349 6.59446 2.94815 6.49957 3.01268C6.40468 3.07722 6.33894 3.17645 6.31653 3.28899L5.82489 5.99219H3.24692C3.13089 5.99219 3.01961 6.03829 2.93756 6.12033C2.85551 6.20238 2.80942 6.31366 2.80942 6.42969C2.80942 6.54573 2.85551 6.65701 2.93756 6.73905C3.01961 6.8211 3.13089 6.86719 3.24692 6.86719H5.66575L5.18832 9.49219H2.37192C2.25589 9.49219 2.14461 9.53829 2.06256 9.62033C1.98051 9.70238 1.93442 9.81366 1.93442 9.92969C1.93442 10.0457 1.98051 10.157 2.06256 10.2391C2.14461 10.3211 2.25589 10.3672 2.37192 10.3672H5.02973L4.56653 12.914C4.5458 13.0281 4.57126 13.1458 4.63731 13.2412C4.70335 13.3366 4.80458 13.4018 4.91871 13.4226C4.94451 13.4274 4.97069 13.4297 4.99692 13.4297C5.09928 13.4296 5.19835 13.3935 5.27689 13.3279C5.35543 13.2622 5.40846 13.1711 5.42676 13.0704L5.91895 10.3672H8.52973L8.06653 12.914C8.0458 13.0281 8.07126 13.1458 8.13731 13.2412C8.20335 13.3366 8.30458 13.4018 8.41872 13.4226C8.44451 13.4274 8.47069 13.4297 8.49692 13.4297C8.59928 13.4296 8.69835 13.3935 8.77689 13.3279C8.85543 13.2622 8.90846 13.1711 8.92676 13.0704L9.41895 10.3672H11.9969C12.113 10.3672 12.2242 10.3211 12.3063 10.2391C12.3883 10.157 12.4344 10.0457 12.4344 9.92969C12.4344 9.81366 12.3883 9.70238 12.3063 9.62033C12.2242 9.53829 12.113 9.49219 11.9969 9.49219H9.57809L10.0555 6.86719H12.8719C12.988 6.86719 13.0992 6.8211 13.1813 6.73905C13.2633 6.65701 13.3094 6.54573 13.3094 6.42969C13.3094 6.31366 13.2633 6.20238 13.1813 6.12033C13.0992 6.03829 12.988 5.99219 12.8719 5.99219ZM8.68832 9.49219H6.07809L6.55551 6.86719H9.16575L8.68832 9.49219Z" fill="#979A9C"/>
</svg>
