<svg width="17" height="18" viewBox="0 0 17 18" fill="none" xmlns="http://www.w3.org/2000/svg">
<path d="M8.66666 4.17969C7.47997 4.17969 6.31993 4.53158 5.33324 5.19087C4.34654 5.85016 3.57751 6.78723 3.12338 7.88359C2.66926 8.97994 2.55044 10.1863 2.78195 11.3502C3.01346 12.5141 3.5849 13.5832 4.42402 14.4223C5.26313 15.2614 6.33223 15.8329 7.49612 16.0644C8.66 16.2959 9.8664 16.1771 10.9628 15.723C12.0591 15.2688 12.9962 14.4998 13.6555 13.5131C14.3148 12.5264 14.6667 11.3664 14.6667 10.1797C14.6648 8.58895 14.0321 7.06388 12.9073 5.93906C11.7825 4.81423 10.2574 4.18151 8.66666 4.17969ZM8.66666 15.1797C7.67775 15.1797 6.71105 14.8864 5.88881 14.337C5.06656 13.7876 4.4257 13.0067 4.04726 12.0931C3.66882 11.1795 3.56981 10.1741 3.76273 9.20424C3.95566 8.23433 4.43186 7.34342 5.13113 6.64415C5.83039 5.94489 6.7213 5.46869 7.69121 5.27576C8.66111 5.08283 9.66645 5.18185 10.5801 5.56029C11.4937 5.93873 12.2746 6.57959 12.824 7.40184C13.3734 8.22408 13.6667 9.19078 13.6667 10.1797C13.6652 11.5053 13.1379 12.7762 12.2005 13.7136C11.2632 14.6509 9.99228 15.1782 8.66666 15.1797ZM11.5204 7.32594C11.5669 7.37237 11.6038 7.42752 11.6289 7.48822C11.6541 7.54892 11.6671 7.61398 11.6671 7.67969C11.6671 7.7454 11.6541 7.81046 11.6289 7.87116C11.6038 7.93186 11.5669 7.987 11.5204 8.03344L9.02041 10.5334C8.97395 10.5799 8.9188 10.6167 8.85811 10.6419C8.79741 10.667 8.73236 10.68 8.66666 10.68C8.60096 10.68 8.53591 10.667 8.47521 10.6419C8.41451 10.6167 8.35936 10.5799 8.31291 10.5334C8.26645 10.487 8.2296 10.4318 8.20446 10.3711C8.17932 10.3104 8.16638 10.2454 8.16638 10.1797C8.16638 10.114 8.17932 10.0489 8.20446 9.98824C8.2296 9.92754 8.26645 9.87239 8.31291 9.82594L10.8129 7.32594C10.8593 7.27945 10.9145 7.24257 10.9752 7.21741C11.0359 7.19225 11.101 7.17929 11.1667 7.17929C11.2324 7.17929 11.2974 7.19225 11.3581 7.21741C11.4188 7.24257 11.474 7.27945 11.5204 7.32594ZM6.66666 2.67969C6.66666 2.54708 6.71934 2.4199 6.81311 2.32613C6.90687 2.23237 7.03405 2.17969 7.16666 2.17969H10.1667C10.2993 2.17969 10.4264 2.23237 10.5202 2.32613C10.614 2.4199 10.6667 2.54708 10.6667 2.67969C10.6667 2.8123 10.614 2.93947 10.5202 3.03324C10.4264 3.12701 10.2993 3.17969 10.1667 3.17969H7.16666C7.03405 3.17969 6.90687 3.12701 6.81311 3.03324C6.71934 2.93947 6.66666 2.8123 6.66666 2.67969Z" fill="white"/>
</svg>
