<svg width="16" height="17" viewBox="0 0 16 17" fill="none" xmlns="http://www.w3.org/2000/svg">
<path d="M10 1.51302H4.00002C3.6464 1.51302 3.30726 1.6535 3.05721 1.90355C2.80716 2.15359 2.66669 2.49273 2.66669 2.84635V13.513C2.66669 13.8666 2.80716 14.2058 3.05721 14.4558C3.30726 14.7059 3.6464 14.8464 4.00002 14.8464H12C12.3536 14.8464 12.6928 14.7059 12.9428 14.4558C13.1929 14.2058 13.3334 13.8666 13.3334 13.513V4.84635L10 1.51302Z" stroke="#0969DA" stroke-linecap="round" stroke-linejoin="round"/>
<path d="M9.33337 1.51302V4.17969C9.33337 4.53331 9.47385 4.87245 9.7239 5.1225C9.97395 5.37255 10.3131 5.51302 10.6667 5.51302H13.3334M5.33337 8.84636H6.66671M9.33337 8.84636H10.6667M5.33337 11.513H6.66671M9.33337 11.513H10.6667" stroke="#0969DA" stroke-linecap="round" stroke-linejoin="round"/>
</svg>
