<svg width="17" height="17" viewBox="0 0 17 17" fill="none" xmlns="http://www.w3.org/2000/svg">
<path d="M14.8535 11.8878C15.2062 11.171 15.3819 10.3801 15.3661 9.58145C15.3502 8.78275 15.1432 7.99949 14.7624 7.29724C14.3816 6.595 13.8381 5.99422 13.1773 5.54522C12.5166 5.09622 11.7579 4.81207 10.9648 4.71656C10.7018 4.10339 10.3187 3.54906 9.83807 3.08624C9.35748 2.62342 8.78912 2.26147 8.16648 2.02171C7.54384 1.78195 6.8795 1.66923 6.21263 1.6902C5.54575 1.71117 4.88981 1.86539 4.28345 2.14379C3.6771 2.42219 3.1326 2.81913 2.68203 3.31122C2.23147 3.80332 1.88394 4.38061 1.65994 5.0091C1.43594 5.63758 1.34 6.30454 1.37775 6.97068C1.41551 7.63682 1.58621 8.28867 1.87979 8.88781L1.40104 10.5641C1.35832 10.714 1.35645 10.8727 1.39562 11.0236C1.43479 11.1745 1.51358 11.3123 1.62384 11.4225C1.7341 11.5328 1.87182 11.6116 2.02275 11.6507C2.17368 11.6899 2.33233 11.688 2.48229 11.6453L4.15854 11.1666C4.66436 11.4149 5.20846 11.5761 5.76792 11.6434C6.0346 12.2682 6.42581 12.8322 6.91768 13.3008C7.40954 13.7693 7.99173 14.1328 8.62872 14.3689C9.26572 14.605 9.94414 14.7089 10.6226 14.6741C11.301 14.6393 11.9653 14.4666 12.5748 14.1666L14.251 14.6453C14.401 14.688 14.5597 14.6899 14.7106 14.6507C14.8615 14.6116 14.9992 14.5328 15.1095 14.4225C15.2198 14.3123 15.2985 14.1745 15.3377 14.0236C15.3769 13.8727 15.375 13.714 15.3323 13.5641L14.8535 11.8878ZM13.8373 11.9716L14.3092 13.6222L12.6585 13.1503C12.5328 13.115 12.3982 13.1302 12.2835 13.1928C11.3619 13.6943 10.2802 13.8138 9.27119 13.5258C8.26222 13.2378 7.40664 12.5652 6.88854 11.6528C7.5732 11.5815 8.23573 11.3695 8.83458 11.03C9.43342 10.6906 9.95565 10.231 10.3685 9.68021C10.7813 9.12939 11.0759 8.4992 11.2337 7.82917C11.3915 7.15914 11.4091 6.46372 11.2854 5.78656C11.8846 5.92776 12.443 6.20533 12.9173 6.59766C13.3917 6.99 13.769 7.4865 14.0201 8.04853C14.2711 8.61056 14.3891 9.22295 14.3647 9.83802C14.3404 10.4531 14.1745 11.0542 13.8798 11.5947C13.8167 11.7099 13.8014 11.8452 13.8373 11.9716Z" fill="#04A46E"/>
</svg>
