<svg width="31" height="31" viewBox="0 0 31 31" fill="none" xmlns="http://www.w3.org/2000/svg">
<path d="M15.4987 3.875C16.4907 3.875 17.3975 4.24829 18.0821 4.86183C18.7171 4.29402 19.5215 3.95128 20.3709 3.88663L20.6654 3.875H21.9571C22.2863 3.87537 22.6029 4.00143 22.8423 4.22743C23.0817 4.45343 23.2258 4.76231 23.2451 5.09097C23.2644 5.41962 23.1574 5.74324 22.9461 5.9957C22.7348 6.24816 22.4351 6.41041 22.1082 6.44929L21.9571 6.45833H20.6654C20.349 6.45837 20.0437 6.57453 19.8072 6.78476C19.5708 6.99499 19.4198 7.28468 19.3828 7.59887L19.3737 7.75V23.25C19.3738 23.5664 19.4899 23.8717 19.7002 24.1081C19.9104 24.3446 20.2001 24.4956 20.5143 24.5326L20.6654 24.5417H21.9571C22.2863 24.542 22.6029 24.6681 22.8423 24.8941C23.0817 25.1201 23.2258 25.429 23.2451 25.7576C23.2644 26.0863 23.1574 26.4099 22.9461 26.6624C22.7348 26.9148 22.4351 27.0771 22.1082 27.116L21.9571 27.125H20.6654C19.6734 27.125 18.7666 26.7517 18.0821 26.1382C17.4471 26.706 16.6426 27.0487 15.7932 27.1134L15.4987 27.125H14.2071C13.8778 27.1246 13.5612 26.9986 13.3218 26.7726C13.0824 26.5466 12.9383 26.2377 12.919 25.909C12.8998 25.5804 13.0067 25.2568 13.218 25.0043C13.4293 24.7518 13.729 24.5896 14.0559 24.5507L14.2071 24.5417H15.4987C15.8151 24.5416 16.1205 24.4255 16.3569 24.2152C16.5933 24.005 16.7443 23.7153 16.7814 23.4011L16.7904 23.25V7.75C16.7904 7.43363 16.6742 7.12827 16.464 6.89185C16.2537 6.65543 15.9641 6.50439 15.6499 6.46737L15.4987 6.45833H14.2071C13.8778 6.45797 13.5612 6.33191 13.3218 6.1059C13.0824 5.8799 12.9383 5.57102 12.919 5.24237C12.8998 4.91371 13.0067 4.59009 13.218 4.33763C13.4293 4.08517 13.729 3.92293 14.0559 3.88404L14.2071 3.875H15.4987ZM24.5404 9.04167C25.1921 9.04146 25.8199 9.28761 26.2978 9.73077C26.7757 10.1739 27.0684 10.7813 27.1173 11.4313L27.1237 11.625V19.375C27.1239 20.0267 26.8778 20.6545 26.4346 21.1324C25.9915 21.6103 25.3841 21.903 24.7341 21.9519L24.5404 21.9583H20.6654V19.375H24.5404V11.625H20.6654V9.04167H24.5404ZM6.45706 16.7917V19.375H15.4987V21.9583H6.45706C5.80532 21.9585 5.17758 21.7124 4.69969 21.2692C4.2218 20.8261 3.92907 20.2187 3.88019 19.5687L3.87373 19.375V16.7917H6.45706ZM7.74873 5.16667C7.99038 5.16667 8.22718 5.23445 8.43222 5.36232C8.63726 5.49018 8.80232 5.673 8.90865 5.89L8.97065 6.04113L9.13856 6.52937C9.31578 7.04886 9.60134 7.52477 9.97633 7.92559C10.3513 8.32641 10.8072 8.64299 11.3137 8.85437L11.5527 8.94479L12.0409 9.11142C12.2827 9.19405 12.4944 9.3465 12.6495 9.54949C12.8046 9.75249 12.896 9.99691 12.9122 10.2518C12.9284 10.5068 12.8686 10.7608 12.7404 10.9818C12.6122 11.2027 12.4214 11.3807 12.1921 11.4932L12.0409 11.5552L11.5527 11.7232C11.0332 11.9004 10.5573 12.1859 10.1565 12.5609C9.75565 12.9359 9.43907 13.3918 9.22769 13.8983L9.13727 14.1373L8.97065 14.6255C8.88816 14.8673 8.73582 15.0792 8.53291 15.2344C8.32999 15.3896 8.0856 15.4812 7.83065 15.4975C7.5757 15.5138 7.32164 15.4542 7.10059 15.3261C6.87955 15.198 6.70145 15.0073 6.58881 14.778L6.52681 14.6255L6.3589 14.1373C6.18168 13.6178 5.89612 13.1419 5.52113 12.7411C5.14614 12.3403 4.69028 12.0237 4.18373 11.8123L3.94477 11.7219L3.45652 11.5552C3.2148 11.4726 3.00301 11.3202 2.84793 11.1172C2.69285 10.9142 2.60145 10.6698 2.58527 10.4148C2.5691 10.1599 2.62888 9.90587 2.75706 9.6849C2.88524 9.46393 3.07606 9.28594 3.3054 9.17342L3.45652 9.11142L3.94477 8.9435C4.46426 8.76628 4.94017 8.48072 5.34099 8.10573C5.74181 7.73074 6.05839 7.27488 6.26977 6.76833L6.36019 6.52937L6.52681 6.04113C6.61384 5.78613 6.77843 5.56474 6.99754 5.40794C7.21664 5.25113 7.4793 5.16677 7.74873 5.16667ZM7.74873 9.29483C7.44318 9.67936 7.09476 10.0278 6.71023 10.3333C7.09601 10.639 7.44217 10.9852 7.74873 11.3718C8.05443 10.9852 8.40059 10.639 8.78723 10.3333C8.4027 10.0278 8.05428 9.67936 7.74873 9.29483Z" fill="black"/>
</svg>
