<svg width="42" height="43" viewBox="0 0 42 43" fill="none" xmlns="http://www.w3.org/2000/svg">
<g clip-path="url(#clip0_1_5342)">
<path d="M25.8525 35.335C24.7633 36.6692 23.5918 37.7296 21.3676 37.772C20.6199 36.0071 21.0743 34.5322 22.1635 33.198L31.5132 21.7445M25.8525 35.335L31.5132 21.7445M25.8525 35.335L35.2022 23.8814M31.5132 21.7445L33.6637 19.11C35.3573 18.8836 36.6779 19.7635 37.3527 21.2469L35.2022 23.8814M31.5132 21.7445C33.0474 22.0513 34.4681 22.7312 35.2022 23.8814M12.1841 33.5888C11.7729 35.8274 11.8365 36.6471 13.1648 39.1765C13.2945 37.9101 13.2301 37.4278 13.709 36.6726C14.5507 37.6575 15.3619 38.4848 16.8131 38.4696C14.8703 37.6702 15.5942 36.5513 15.723 33.5879M20.9997 31.7731L8.72138 31.7756C6.69887 31.7756 5.1875 33.1743 5.1875 34.9221M36.5508 26.8889C36.5508 29.5946 34.3723 31.7714 31.6683 31.7714H31.0097M14.1184 27.1847L16.4223 12.9017H20.4911C24.8599 12.9017 26.8027 21.8286 15.5293 18.438C14.9724 21.8896 14.5722 24.3716 14.1184 27.1847Z" stroke="black" stroke-width="1.3125" stroke-linecap="round" stroke-linejoin="round"/>
<path d="M36.5508 24.7522V35.8149C36.5508 36.7142 36.1936 37.5766 35.5577 38.2125C34.9218 38.8483 34.0594 39.2056 33.1602 39.2056H18.4711M11.0558 39.2056H8.57813C7.67888 39.2056 6.81646 38.8483 6.18059 38.2125C5.54473 37.5766 5.1875 36.7142 5.1875 35.8149V11.2329C5.1875 10.3337 5.54473 9.47124 6.18059 8.83538C6.81646 8.19951 7.67888 7.84229 8.57813 7.84229H33.1602C34.0594 7.84229 34.9218 8.19951 35.5577 8.83538C36.1936 9.47124 36.5508 10.3337 36.5508 11.2329V17.8718" stroke="black" stroke-width="1.3125" stroke-linecap="round" stroke-linejoin="round"/>
</g>
<defs>
<clipPath id="clip0_1_5342">
<rect width="42" height="42" fill="white" transform="translate(0 0.0395508)"/>
</clipPath>
</defs>
</svg>
