<svg width="16" height="17" viewBox="0 0 16 17" fill="none" xmlns="http://www.w3.org/2000/svg">
<path d="M14.2075 4.76531L11.4144 1.97281C11.3215 1.87993 11.2113 1.80625 11.0899 1.75598C10.9686 1.70571 10.8385 1.67984 10.7072 1.67984C10.5759 1.67984 10.4458 1.70571 10.3245 1.75598C10.2031 1.80625 10.0929 1.87993 10 1.97281L2.29313 9.67969C2.19987 9.77221 2.12593 9.88235 2.0756 10.0037C2.02528 10.125 1.99959 10.2552 2.00001 10.3866V13.1797C2.00001 13.4449 2.10536 13.6993 2.2929 13.8868C2.48043 14.0743 2.73479 14.1797 3.00001 14.1797H13.5C13.6326 14.1797 13.7598 14.127 13.8536 14.0332C13.9473 13.9395 14 13.8123 14 13.6797C14 13.5471 13.9473 13.4199 13.8536 13.3261C13.7598 13.2324 13.6326 13.1797 13.5 13.1797H7.20751L14.2075 6.17969C14.3004 6.08683 14.3741 5.97658 14.4243 5.85524C14.4746 5.7339 14.5005 5.60384 14.5005 5.4725C14.5005 5.34116 14.4746 5.2111 14.4243 5.08976C14.3741 4.96842 14.3004 4.85817 14.2075 4.76531ZM5.79313 13.1797H3.00001V10.3866L8.50001 4.88656L11.2931 7.67969L5.79313 13.1797ZM12 6.97281L9.20751 4.17969L10.7075 2.67969L13.5 5.47281L12 6.97281Z" fill="#24292F"/>
</svg>
