<svg width="32" height="33" viewBox="0 0 32 33" fill="none" xmlns="http://www.w3.org/2000/svg">
<path d="M28 16.7192C28 16.9845 27.8946 17.2388 27.7071 17.4263C27.5196 17.6139 27.2652 17.7192 27 17.7192H17V27.7192C17 27.9845 16.8946 28.2388 16.7071 28.4263C16.5196 28.6139 16.2652 28.7192 16 28.7192C15.7348 28.7192 15.4804 28.6139 15.2929 28.4263C15.1054 28.2388 15 27.9845 15 27.7192V17.7192H5C4.73478 17.7192 4.48043 17.6139 4.29289 17.4263C4.10536 17.2388 4 16.9845 4 16.7192C4 16.454 4.10536 16.1997 4.29289 16.0121C4.48043 15.8246 4.73478 15.7192 5 15.7192H15V5.71924C15 5.45402 15.1054 5.19967 15.2929 5.01213C15.4804 4.8246 15.7348 4.71924 16 4.71924C16.2652 4.71924 16.5196 4.8246 16.7071 5.01213C16.8946 5.19967 17 5.45402 17 5.71924V15.7192H27C27.2652 15.7192 27.5196 15.8246 27.7071 16.0121C27.8946 16.1997 28 16.454 28 16.7192Z" fill="#636C76"/>
</svg>
