<svg width="32" height="33" viewBox="0 0 32 33" fill="none" xmlns="http://www.w3.org/2000/svg">
<path d="M28 16.7697C28 17.0349 27.8946 17.2892 27.7071 17.4768C27.5196 17.6643 27.2652 17.7697 27 17.7697H17V27.7697C17 28.0349 16.8946 28.2892 16.7071 28.4768C16.5196 28.6643 16.2652 28.7697 16 28.7697C15.7348 28.7697 15.4804 28.6643 15.2929 28.4768C15.1054 28.2892 15 28.0349 15 27.7697V17.7697H5C4.73478 17.7697 4.48043 17.6643 4.29289 17.4768C4.10536 17.2892 4 17.0349 4 16.7697C4 16.5044 4.10536 16.2501 4.29289 16.0625C4.48043 15.875 4.73478 15.7697 5 15.7697H15V5.76965C15 5.50444 15.1054 5.25008 15.2929 5.06255C15.4804 4.87501 15.7348 4.76965 16 4.76965C16.2652 4.76965 16.5196 4.87501 16.7071 5.06255C16.8946 5.25008 17 5.50444 17 5.76965V15.7697H27C27.2652 15.7697 27.5196 15.875 27.7071 16.0625C27.8946 16.2501 28 16.5044 28 16.7697Z" fill="#343330"/>
</svg>
