<svg width="17" height="17" viewBox="0 0 17 17" fill="none" xmlns="http://www.w3.org/2000/svg">
<path d="M14.2887 10.1284C14.2994 9.99829 14.2589 9.86916 14.1758 9.76856C14.0927 9.66795 13.9735 9.60384 13.8437 9.58991C13.7139 9.57599 13.5839 9.61335 13.4813 9.69403C13.3787 9.7747 13.3117 9.8923 13.2947 10.0217L14.2887 10.1284ZM9.39199 14.1797H7.94132V15.1797H9.39199V14.1797ZM4.03866 10.0217L3.91666 8.88502L2.92266 8.99169L3.04466 10.1284L4.03866 10.0217ZM6.94332 8.21235L8.13666 6.07369L7.26332 5.58635L6.06999 7.72569L6.94332 8.21235ZM9.19666 6.07369L10.39 8.21235L11.2633 7.72569L10.07 5.58635L9.19666 6.07369ZM10.39 8.21235C10.498 8.40569 10.5967 8.58569 10.6933 8.72235C10.7927 8.86302 10.9267 9.01902 11.134 9.11035L11.5373 8.19502C11.5747 8.21102 11.568 8.22835 11.5113 8.14769C11.4222 8.01089 11.3395 7.87008 11.2633 7.72569L10.39 8.21235ZM11.9607 7.82235C11.7887 7.99435 11.686 8.09569 11.6053 8.16035C11.5287 8.22235 11.5273 8.20435 11.5673 8.19902L11.704 9.18969C11.928 9.15835 12.1007 9.04569 12.2347 8.93769C12.3647 8.83235 12.5093 8.68702 12.6667 8.53102L11.9607 7.82235ZM11.134 9.11035C11.3133 9.18902 11.5107 9.21635 11.704 9.18969L11.5673 8.19902C11.5571 8.20001 11.5469 8.19864 11.5373 8.19502L11.134 9.11035ZM4.66732 8.53035C4.82399 8.68702 4.96866 8.83235 5.09866 8.93702C5.23266 9.04635 5.40532 9.15835 5.62932 9.18969L5.76599 8.19902C5.80599 8.20435 5.80466 8.22235 5.72799 8.16035C5.60443 8.0532 5.48586 7.94041 5.37266 7.82235L4.66732 8.53035ZM6.06999 7.72569C5.99361 7.87009 5.91063 8.0109 5.82132 8.14769C5.76532 8.22769 5.75866 8.21102 5.79599 8.19435L6.19866 9.11035C6.40532 9.01902 6.54132 8.86369 6.63999 8.72235C6.73599 8.58502 6.83532 8.40569 6.94332 8.21235L6.06999 7.72569ZM5.62932 9.18969C5.82266 9.21635 6.01999 9.18969 6.19866 9.11035L5.79599 8.19435C5.78643 8.19797 5.77617 8.20001 5.76599 8.19902L5.62932 9.18969ZM7.94132 14.1797C6.98266 14.1797 6.31132 14.179 5.79932 14.113C5.30066 14.0497 5.01932 13.931 4.80799 13.7424L4.14132 14.4877C4.56132 14.8637 5.06799 15.0277 5.67199 15.105C6.26266 15.1804 7.00932 15.1797 7.94132 15.1797V14.1797ZM3.04466 10.1284C3.14332 11.047 3.22199 11.9464 3.35532 12.6757C3.42266 13.0437 3.50799 13.3904 3.62532 13.691C3.74199 13.9897 3.90332 14.2744 4.14132 14.4877L4.80799 13.7424C4.73066 13.673 4.64266 13.5464 4.55666 13.327C4.47221 13.1101 4.39977 12.833 4.33932 12.4957C4.21399 11.8144 4.14066 10.9757 4.03866 10.0217L3.04466 10.1284ZM13.2947 10.0217C13.192 10.9757 13.1187 11.8144 12.9947 12.495C12.9333 12.8328 12.8607 13.1101 12.7767 13.327C12.6907 13.5464 12.6027 13.6737 12.5253 13.7424L13.192 14.4877C13.43 14.2744 13.5913 13.9897 13.708 13.691C13.8253 13.3904 13.9107 13.0437 13.978 12.6757C14.1113 11.9464 14.19 11.0464 14.2887 10.1284L13.2947 10.0217ZM9.39199 15.1797C10.324 15.1797 11.0707 15.1804 11.6613 15.105C12.266 15.0277 12.772 14.8637 13.192 14.4877L12.5253 13.7424C12.314 13.931 12.0327 14.049 11.534 14.113C11.022 14.179 10.3507 14.1797 9.39199 14.1797V15.1797ZM7.83332 4.01302C7.83332 3.55302 8.20666 3.17969 8.66666 3.17969V2.17969C8.18043 2.17969 7.71411 2.37284 7.3703 2.71666C7.02648 3.06048 6.83332 3.52679 6.83332 4.01302H7.83332ZM8.66666 3.17969C9.12666 3.17969 9.49999 3.55302 9.49999 4.01302H10.5C10.5 3.52679 10.3068 3.06048 9.96302 2.71666C9.6192 2.37284 9.15289 2.17969 8.66666 2.17969V3.17969ZM14.5 6.67969C14.5 6.8123 14.4473 6.93947 14.3535 7.03324C14.2598 7.12701 14.1326 7.17969 14 7.17969V8.17969C14.3978 8.17969 14.7793 8.02165 15.0607 7.74035C15.342 7.45904 15.5 7.07751 15.5 6.67969H14.5ZM13.5 6.67969C13.5 6.54708 13.5527 6.4199 13.6464 6.32613C13.7402 6.23237 13.8674 6.17969 14 6.17969V5.17969C13.6022 5.17969 13.2206 5.33772 12.9393 5.61903C12.658 5.90033 12.5 6.28186 12.5 6.67969H13.5ZM14 6.17969C14.1326 6.17969 14.2598 6.23237 14.3535 6.32613C14.4473 6.4199 14.5 6.54708 14.5 6.67969H15.5C15.5 6.28186 15.342 5.90033 15.0607 5.61903C14.7793 5.33772 14.3978 5.17969 14 5.17969V6.17969ZM3.33332 7.17969C3.20072 7.17969 3.07354 7.12701 2.97977 7.03324C2.886 6.93947 2.83332 6.8123 2.83332 6.67969H1.83332C1.83332 7.07751 1.99136 7.45904 2.27266 7.74035C2.55397 8.02165 2.9355 8.17969 3.33332 8.17969V7.17969ZM2.83332 6.67969C2.83332 6.54708 2.886 6.4199 2.97977 6.32613C3.07354 6.23237 3.20072 6.17969 3.33332 6.17969V5.17969C2.9355 5.17969 2.55397 5.33772 2.27266 5.61903C1.99136 5.90033 1.83332 6.28186 1.83332 6.67969H2.83332ZM3.33332 6.17969C3.46593 6.17969 3.59311 6.23237 3.68688 6.32613C3.78065 6.4199 3.83332 6.54708 3.83332 6.67969H4.83332C4.83332 6.28186 4.67529 5.90033 4.39398 5.61903C4.11268 5.33772 3.73115 5.17969 3.33332 5.17969V6.17969ZM14 7.17969H13.994L13.9827 8.17969H14V7.17969ZM13.994 7.17969C13.9231 7.17885 13.8533 7.16297 13.789 7.13308C13.7248 7.1032 13.6676 7.06 13.6213 7.00635L12.8647 7.65969C13.1353 7.97302 13.5353 8.17435 13.9827 8.17969L13.994 7.17969ZM13.6213 7.00635C13.5425 6.91585 13.4994 6.79971 13.5 6.67969H12.5C12.5 7.05369 12.638 7.39702 12.8647 7.65969L13.6213 7.00635ZM12.6667 8.53102C13.118 8.08102 13.3507 7.85435 13.5053 7.75835L12.9807 6.90769C12.7007 7.08102 12.3647 7.41969 11.9607 7.82235L12.6667 8.53102ZM3.83332 6.67969C3.83396 6.79971 3.79083 6.91585 3.71199 7.00635L4.46866 7.65969C4.69532 7.39702 4.83332 7.05369 4.83332 6.67969H3.83332ZM5.37266 7.82235C4.96866 7.41969 4.63266 7.08035 4.35266 6.90769L3.82799 7.75835C3.98266 7.85435 4.21466 8.08102 4.66666 8.53102L5.37266 7.82235ZM3.71199 7.00635C3.6657 7.06 3.60854 7.1032 3.54429 7.13308C3.48004 7.16297 3.41018 7.17885 3.33932 7.17969L3.35066 8.17969C3.56322 8.17718 3.77281 8.12952 3.96556 8.03987C4.1583 7.95023 4.32979 7.82063 4.46866 7.65969L3.71199 7.00635ZM3.33932 7.17969H3.33332V8.17969H3.35066L3.33932 7.17969ZM3.91666 8.88502C3.88822 8.63745 3.864 8.38941 3.84399 8.14102C3.82987 8.0099 3.82875 7.8777 3.84066 7.74635L2.84932 7.61302C2.82891 7.81201 2.82802 8.01252 2.84666 8.21169C2.86199 8.43035 2.88999 8.69169 2.92266 8.99169L3.91666 8.88502ZM9.49999 4.01302C9.49999 4.33635 9.31599 4.61769 9.04466 4.75635L9.49866 5.64702C9.80005 5.49353 10.0531 5.25966 10.2298 4.97127C10.4065 4.68289 10.5001 4.35124 10.5 4.01302H9.49999ZM9.04466 4.75635C8.93132 4.81369 8.80399 4.84635 8.66666 4.84635V5.84635C8.95614 5.84661 9.24154 5.77806 9.49932 5.64635L9.04466 4.75635ZM10.07 5.58635C9.93266 5.33969 9.80932 5.11769 9.69599 4.93635L8.84799 5.46635C8.94532 5.62235 9.05466 5.82035 9.19666 6.07369L10.07 5.58635ZM8.66666 4.84635C8.52932 4.84635 8.40132 4.81302 8.28866 4.75635L7.83466 5.64702C8.08466 5.77435 8.36799 5.84635 8.66666 5.84635V4.84635ZM8.28866 4.75635C8.15154 4.68656 8.03641 4.58017 7.95605 4.44897C7.87568 4.31777 7.8332 4.16688 7.83332 4.01302H6.83332C6.83339 4.35113 6.92695 4.68264 7.10367 4.97089C7.28038 5.25914 7.53337 5.49291 7.83466 5.64635L8.28866 4.75635ZM8.13666 6.07369C8.27799 5.81902 8.38799 5.62235 8.48532 5.46702L7.63732 4.93635C7.52399 5.11769 7.40066 5.33969 7.26332 5.58635L8.13666 6.07369Z" fill="black"/>
<path d="M3.99999 12.3464H13.3333" stroke="black" stroke-width="1.5" stroke-linecap="round"/>
</svg>
