<svg width="100" height="20" viewBox="0 0 100 20" fill="none" xmlns="http://www.w3.org/2000/svg">
<path d="M10.0003 14.391L15.1503 17.4993L13.7836 11.641L18.3336 7.69936L12.3419 7.19102L10.0003 1.66602L7.65865 7.19102L1.66699 7.69936L6.21699 11.641L4.85032 17.4993L10.0003 14.391Z" fill="#FFA20D"/>
<path d="M29.9999 14.391L35.1499 17.4993L33.7832 11.641L38.3332 7.69936L32.3415 7.19102L29.9999 1.66602L27.6582 7.19102L21.6665 7.69936L26.2165 11.641L24.8499 17.4993L29.9999 14.391Z" fill="#FFA20D"/>
<path d="M49.9999 14.391L55.1499 17.4993L53.7832 11.641L58.3332 7.69936L52.3415 7.19102L49.9999 1.66602L47.6582 7.19102L41.6665 7.69936L46.2165 11.641L44.8499 17.4993L49.9999 14.391Z" fill="#FFA20D"/>
<path d="M69.9999 14.391L75.1499 17.4993L73.7832 11.641L78.3332 7.69936L72.3415 7.19102L69.9999 1.66602L67.6582 7.19102L61.6665 7.69936L66.2165 11.641L64.8499 17.4993L69.9999 14.391Z" fill="#FFA20D"/>
<path d="M89.9999 14.391L95.1499 17.4993L93.7832 11.641L98.3332 7.69936L92.3415 7.19102L89.9999 1.66602L87.6582 7.19102L81.6665 7.69936L86.2165 11.641L84.8499 17.4993L89.9999 14.391Z" fill="#FFA20D"/>
</svg>
