<svg width="25" height="25" viewBox="0 0 25 25" fill="none" xmlns="http://www.w3.org/2000/svg">
<path d="M23.0304 2.71762C22.9115 2.61499 22.767 2.54674 22.6122 2.52022C22.4574 2.49369 22.2984 2.50989 22.1521 2.56708L2.72094 10.1714C2.44556 10.2785 2.21241 10.4721 2.05661 10.7232C1.9008 10.9742 1.83077 11.2691 1.85705 11.5634C1.88334 11.8577 2.00451 12.1355 2.20234 12.355C2.40016 12.5744 2.66393 12.7237 2.95393 12.7803L7.98863 13.7688V19.3826C7.98764 19.6884 8.07851 19.9874 8.24946 20.241C8.42042 20.4945 8.66358 20.6908 8.94743 20.8045C9.23085 20.9203 9.54253 20.9481 9.84194 20.8843C10.1414 20.8205 10.4147 20.6681 10.6263 20.4469L13.054 17.9291L16.9055 21.3003C17.1834 21.5467 17.5418 21.6831 17.9132 21.6838C18.076 21.6836 18.2378 21.6581 18.3926 21.608C18.6457 21.5277 18.8733 21.3825 19.0528 21.1869C19.2323 20.9912 19.3574 20.752 19.4157 20.4929L23.3075 3.56232C23.3423 3.40963 23.3349 3.25035 23.2861 3.10154C23.2373 2.95273 23.1489 2.82002 23.0304 2.71762ZM17.1682 6.16932L8.57829 12.321L3.82261 11.3881L17.1682 6.16932ZM9.52272 19.3826V14.8302L11.8996 16.9147L9.52272 19.3826ZM17.9152 20.1497L9.98774 13.1983L21.3975 5.02067L17.9152 20.1497Z" fill="white"/>
</svg>
