<svg width="31" height="31" viewBox="0 0 31 31" fill="none" xmlns="http://www.w3.org/2000/svg">
<path d="M23.2863 3.90437L17.8897 11.9127C17.5216 12.4655 18.2398 13.1114 18.7577 12.6593L23.4633 8.04675C23.6015 7.92791 23.803 8.00929 23.803 8.21208V22.6529C23.803 22.8467 23.5447 22.928 23.4349 22.7898L7.97233 3.56208C7.71979 3.25128 7.40004 3.00181 7.03714 2.83244C6.67425 2.66308 6.27767 2.57823 5.87725 2.58429C4.21745 2.58429 2.5835 3.42387 2.5835 5.34458V25.6496C2.58609 26.2483 2.78347 26.8299 3.14582 27.3066C3.50816 27.7832 4.01579 28.129 4.59201 28.2916C5.16823 28.4543 5.78173 28.425 6.33983 28.2082C6.89793 27.9914 7.3703 27.5988 7.68558 27.0898L13.0744 19.0815C13.4425 18.5273 12.7321 17.8815 12.2155 18.3336L7.53704 23.0404C7.39883 23.158 7.19733 23.0766 7.19733 22.8725V8.47041C7.19733 8.26762 7.45566 8.19529 7.56545 8.3322L23.0009 27.4398C23.5175 28.0779 24.2925 28.4176 25.0947 28.4176C26.7648 28.4176 28.4168 27.5871 28.4168 25.6599V5.35362C28.4153 4.7508 28.2172 4.16493 27.8525 3.68497C27.4877 3.205 26.9764 2.85715 26.396 2.69423C25.8156 2.5313 25.1979 2.56221 24.6367 2.78224C24.0754 3.00228 23.6013 3.39944 23.2863 3.91341V3.90437Z" fill="black"/>
</svg>
