<svg width="5" height="8" viewBox="0 0 5 8" fill="none" xmlns="http://www.w3.org/2000/svg">
<path d="M3.11989 6.62554C3.11079 7.17661 2.98041 7.4025 2.64083 7.41539C2.53091 7.41993 2.39826 7.37218 2.31109 7.3032C2.21862 7.22967 2.14509 7.11143 2.10491 6.99772C2.06626 6.88857 2.08217 6.76047 2.07611 6.66875C1.81156 6.57475 1.56597 6.49213 1.32416 6.39814C1.24003 6.36554 1.15892 6.31248 1.08994 6.25336C0.491113 5.7417 0.691228 5.3771 1.18848 4.95262C1.23169 4.91623 1.34236 4.92154 1.40224 4.94958C1.55005 5.0178 1.69256 5.10119 1.82521 5.19442C2.12614 5.40515 2.46042 5.46124 2.81744 5.44077C2.97738 5.43168 3.09336 5.37104 3.11989 5.20048C3.14566 5.03145 3.08047 4.8897 2.91901 4.84346C2.68176 4.77524 2.43465 4.74416 2.19208 4.69186C1.79868 4.60696 1.39466 4.55542 1.11344 4.20598C0.426682 3.35246 0.667729 2.173 1.64404 1.67574C1.76154 1.61586 1.89646 1.58933 2.05413 1.53779C2.02532 1.16712 2.02381 0.741876 2.57033 0.74415C2.9319 0.745666 3.0926 1.04887 3.07213 1.56356C3.44886 1.6295 3.8165 1.74624 4.08104 2.04186C4.20233 2.17755 4.30466 2.35568 4.34635 2.53078C4.39486 2.73392 4.29556 2.92191 4.10302 3.03334C3.89154 3.15613 3.66944 3.21905 3.43825 3.08564C3.34047 3.02879 3.25102 2.95678 3.15855 2.89007C2.87884 2.68844 2.56503 2.68314 2.26485 2.79608C2.15191 2.83853 2.03897 2.99468 2.00865 3.11899C1.96847 3.28651 2.1087 3.38126 2.27168 3.42068C2.60217 3.50027 2.9319 3.58668 3.26315 3.664C4.48506 3.94825 4.7155 5.17471 4.13259 6.0161C3.88623 6.37085 3.57242 6.61644 3.1214 6.62402L3.11989 6.62554Z" fill="black"/>
</svg>
